<svg width="50" height="50" viewBox="0 0 50 50" fill="none" xmlns="http://www.w3.org/2000/svg">
<g clip-path="url(#clip0_58_183)" filter="url(#filter0_d_58_183)">
<g filter="url(#filter1_d_58_183)">
<path d="M46 21C46 26.5695 43.7875 31.911 39.8492 35.8492C35.911 39.7875 30.5695 42 25 42C19.4305 42 14.089 39.7875 10.1508 35.8492C6.21249 31.911 4 26.5695 4 21C4 15.4305 6.21249 10.089 10.1508 6.15076C14.089 2.21249 19.4305 0 25 0C30.5695 0 35.911 2.21249 39.8492 6.15076C43.7875 10.089 46 15.4305 46 21ZM22.375 16.4062C22.375 14.595 21.199 13.125 19.75 13.125C18.301 13.125 17.125 14.595 17.125 16.4062C17.125 18.2175 18.301 19.6875 19.75 19.6875C21.199 19.6875 22.375 18.2175 22.375 16.4062ZM30.25 19.6875C31.699 19.6875 32.875 18.2175 32.875 16.4062C32.875 14.595 31.699 13.125 30.25 13.125C28.801 13.125 27.625 14.595 27.625 16.4062C27.625 18.2175 28.801 19.6875 30.25 19.6875ZM34.1875 31.5C35.1185 31.5006 36.0195 31.1713 36.7307 30.5706C37.442 29.97 37.9173 29.1367 38.0725 28.2188V28.2109C38.145 27.779 38.145 27.3381 38.0725 26.9062C37.9173 25.9883 37.442 25.155 36.7307 24.5544C36.0195 23.9537 35.1185 23.6244 34.1875 23.625H15.8125C14.8815 23.6244 13.9805 23.9537 13.2693 24.5544C12.558 25.155 12.0827 25.9883 11.9275 26.9062V26.9141C11.855 27.346 11.855 27.7869 11.9275 28.2188C12.0827 29.1367 12.558 29.97 13.2693 30.5706C13.9805 31.1713 14.8815 31.5006 15.8125 31.5H34.1875ZM13.2689 28.2188C13.4144 28.7826 13.7434 29.2819 14.2038 29.6383C14.6643 29.9948 15.2302 30.1879 15.8125 30.1875H16.4688V28.2188H13.2689ZM36.7311 28.2188C36.5856 28.7826 36.2566 29.2819 35.7962 29.6383C35.3357 29.9948 34.7698 30.1879 34.1875 30.1875H33.5312V28.2188H36.7311ZM34.1875 24.9375C34.7698 24.9371 35.3357 25.1302 35.7962 25.4867C36.2566 25.8431 36.5856 26.3424 36.7311 26.9062H33.5312V24.9375H34.1875ZM13.2689 26.9062C13.4144 26.3424 13.7434 25.8431 14.2038 25.4867C14.6643 25.1302 15.2302 24.9371 15.8125 24.9375H16.4688V26.9062H13.2689ZM17.7812 30.1875H20.4062V28.2188H17.7812V30.1875ZM24.3438 30.1875H21.7188V28.2188H24.3438V30.1875ZM28.2812 30.1875H25.6562V28.2188H28.2812V30.1875ZM32.2188 30.1875H29.5938V28.2188H32.2188V30.1875ZM29.5938 24.9375H32.2188V26.9062H29.5938V24.9375ZM25.6562 24.9375H28.2812V26.9062H25.6562V24.9375ZM21.7188 24.9375H24.3438V26.9062H21.7188V24.9375ZM17.7812 24.9375H20.4062V26.9062H17.7812V24.9375Z" fill="#CED3F1"/>
</g>
</g>
<defs>
<filter id="filter0_d_58_183" x="0" y="0" width="50" height="50" filterUnits="userSpaceOnUse" color-interpolation-filters="sRGB">
<feFlood flood-opacity="0" result="BackgroundImageFix"/>
<feColorMatrix in="SourceAlpha" type="matrix" values="0 0 0 0 0 0 0 0 0 0 0 0 0 0 0 0 0 0 127 0" result="hardAlpha"/>
<feOffset dy="4"/>
<feGaussianBlur stdDeviation="2"/>
<feComposite in2="hardAlpha" operator="out"/>
<feColorMatrix type="matrix" values="0 0 0 0 0 0 0 0 0 0 0 0 0 0 0 0 0 0 0.25 0"/>
<feBlend mode="normal" in2="BackgroundImageFix" result="effect1_dropShadow_58_183"/>
<feBlend mode="normal" in="SourceGraphic" in2="effect1_dropShadow_58_183" result="shape"/>
</filter>
<filter id="filter1_d_58_183" x="0" y="0" width="50" height="50" filterUnits="userSpaceOnUse" color-interpolation-filters="sRGB">
<feFlood flood-opacity="0" result="BackgroundImageFix"/>
<feColorMatrix in="SourceAlpha" type="matrix" values="0 0 0 0 0 0 0 0 0 0 0 0 0 0 0 0 0 0 127 0" result="hardAlpha"/>
<feOffset dy="4"/>
<feGaussianBlur stdDeviation="2"/>
<feComposite in2="hardAlpha" operator="out"/>
<feColorMatrix type="matrix" values="0 0 0 0 0 0 0 0 0 0 0 0 0 0 0 0 0 0 0.25 0"/>
<feBlend mode="normal" in2="BackgroundImageFix" result="effect1_dropShadow_58_183"/>
<feBlend mode="normal" in="SourceGraphic" in2="effect1_dropShadow_58_183" result="shape"/>
</filter>
<clipPath id="clip0_58_183">
<rect width="42" height="42" fill="white" transform="translate(4)"/>
</clipPath>
</defs>
</svg>
