<svg width="50" height="50" viewBox="0 0 50 50" fill="none" xmlns="http://www.w3.org/2000/svg">
<g filter="url(#filter0_d_58_169)">
<path fill-rule="evenodd" clip-rule="evenodd" d="M46 21C46 9.40202 36.598 0 25 0C13.402 0 4 9.40202 4 21C4 32.598 13.402 42 25 42C30.3402 42 35.2148 40.0067 38.9204 36.7236C36.3679 34.977 34.6377 33.1648 33.6982 31.3113C32.6795 29.3015 32.5978 27.2134 33.4983 25.4548C34.8019 22.909 38.042 21.6082 40.75 22.7024C42.4566 22.0128 44.3747 22.2745 45.8862 23.1997C45.9614 22.4767 46 21.7429 46 21ZM22.375 17.0625C22.375 19.2371 21.1997 21 19.75 21C18.3003 21 17.125 19.2371 17.125 17.0625C17.125 14.8879 18.3003 13.125 19.75 13.125C21.1997 13.125 22.375 14.8879 22.375 17.0625ZM26.1609 25.8446C25.2159 26.0622 24.166 26.3803 23.1867 26.7006C22.9242 26.7864 22.6419 26.6433 22.556 26.3808C22.4702 26.1183 22.6134 25.836 22.8758 25.7501C23.8652 25.4265 24.9482 25.0976 25.9366 24.8701C26.9053 24.6471 27.8521 24.5042 28.5371 24.6002C28.8779 24.648 29.25 24.7674 29.4967 25.0644C29.7647 25.3871 29.786 25.7935 29.6807 26.1847C29.578 26.566 29.3423 26.9959 28.9938 27.4776C28.704 27.8782 28.3216 28.3343 27.8376 28.8519C28.3222 29.3749 28.7049 29.835 28.9948 30.2387C29.3431 30.7236 29.5783 31.1554 29.6808 31.5373C29.7857 31.9286 29.7651 32.3358 29.4962 32.6585C29.2485 32.9558 28.8753 33.0734 28.5346 33.1193C27.8496 33.2117 26.9029 33.0638 25.9347 32.8371C24.9469 32.6058 23.8643 32.2739 22.8758 31.9506C22.6134 31.8647 22.4702 31.5824 22.556 31.3199C22.6419 31.0575 22.9242 30.9143 23.1867 31.0001C24.167 31.3208 25.2172 31.642 26.1627 31.8634C27.1279 32.0894 27.9151 32.1938 28.4009 32.1283C28.6457 32.0953 28.7172 32.0314 28.728 32.0184L28.7282 32.0181C28.7299 32.0161 28.7349 32.0105 28.7379 31.9881C28.7419 31.9591 28.7424 31.8989 28.7149 31.7964C28.6581 31.5844 28.5024 31.2672 28.1826 30.8221C27.8673 30.383 27.4121 29.8461 26.7879 29.1969C26.6013 29.0027 26.602 28.6955 26.7896 28.5022C27.4136 27.8591 27.8685 27.327 28.1836 26.8914C28.5031 26.4498 28.6584 26.135 28.7151 25.9247C28.7424 25.823 28.7419 25.7633 28.7379 25.7346C28.7349 25.7121 28.7298 25.7062 28.7278 25.7037L28.7275 25.7034C28.7157 25.6892 28.6431 25.6248 28.3984 25.5906C27.9126 25.5225 27.1254 25.6226 26.1609 25.8446ZM28.7719 19.013C28.4195 19.6464 27.6202 19.8741 26.9868 19.5216C26.3534 19.1691 26.1257 18.3699 26.4782 17.7365C27.3465 16.1762 28.9915 15.0935 30.9063 15.0935C32.8212 15.0935 34.4661 16.1762 35.3344 17.7365C35.6869 18.3699 35.4592 19.1691 34.8258 19.5216C34.1924 19.8741 33.3932 19.6464 33.0407 19.013C32.5991 18.2194 31.7957 17.7185 30.9063 17.7185C30.017 17.7185 29.2136 18.2194 28.7719 19.013ZM40.75 25.7998C43.6627 22.806 50.9444 28.0452 40.75 34.7812C30.5556 28.0452 37.8373 22.806 40.75 25.7998Z" fill="#D1F1CE"/>
</g>
<defs>
<filter id="filter0_d_58_169" x="0" y="0" width="50" height="50" filterUnits="userSpaceOnUse" color-interpolation-filters="sRGB">
<feFlood flood-opacity="0" result="BackgroundImageFix"/>
<feColorMatrix in="SourceAlpha" type="matrix" values="0 0 0 0 0 0 0 0 0 0 0 0 0 0 0 0 0 0 127 0" result="hardAlpha"/>
<feOffset dy="4"/>
<feGaussianBlur stdDeviation="2"/>
<feComposite in2="hardAlpha" operator="out"/>
<feColorMatrix type="matrix" values="0 0 0 0 0 0 0 0 0 0 0 0 0 0 0 0 0 0 0.25 0"/>
<feBlend mode="normal" in2="BackgroundImageFix" result="effect1_dropShadow_58_169"/>
<feBlend mode="normal" in="SourceGraphic" in2="effect1_dropShadow_58_169" result="shape"/>
</filter>
</defs>
</svg>
